<svg width="188" height="125" viewBox="0 0 188 125" fill="none" xmlns="http://www.w3.org/2000/svg">
<path d="M7.104 97V28.84H34.368C42.56 28.84 48.96 30.824 53.568 34.792C58.24 38.76 60.576 44.2 60.576 51.112C60.576 55.656 59.52 59.624 57.408 63.016C55.36 66.344 52.352 68.936 48.384 70.792C44.48 72.584 39.808 73.48 34.368 73.48H21.696V97H7.104ZM21.696 61.192H33.504C37.344 61.192 40.32 60.36 42.432 58.696C44.544 56.968 45.6 54.44 45.6 51.112C45.6 47.848 44.544 45.384 42.432 43.72C40.384 41.992 37.408 41.128 33.504 41.128H21.696V61.192ZM64.6545 97V85.096L97.1025 41.128H66.1905V28.84H115.247V40.744L82.1265 84.712H116.495V97H64.6545ZM125.51 97V28.84H149.03C160.102 28.84 168.614 31.816 174.566 37.768C180.518 43.656 183.494 52.072 183.494 63.016C183.494 73.896 180.55 82.28 174.662 88.168C168.838 94.056 160.486 97 149.606 97H125.51ZM140.102 84.712H149.03C155.622 84.712 160.486 82.952 163.622 79.432C166.822 75.848 168.422 70.344 168.422 62.92C168.422 55.496 166.822 50.024 163.622 46.504C160.486 42.92 155.622 41.128 149.03 41.128H140.102V84.712Z" fill="#F7F7F7"/>
</svg>
